<svg fill="#000" width="800" height="800" viewBox="144 144 512 512" xmlns="http://www.w3.org/2000/svg"><path d="m537.5 382.57-251.91-167.94c-3.1875-1.8398-6.8086-2.8086-10.492-2.8086-3.6875.0-7.3086.96875-10.496 2.8086-6.6719 3.3438-11.07 9.9766-11.547 17.426v335.87c.007812 3.8008 1.0508 7.5234 3.0078 10.777 1.9609 3.25 4.7656 5.9141 8.1172 7.6953 3.2812 1.6875 6.9531 2.4766 10.637 2.293 3.6875-.18359 7.2578-1.3359 10.355-3.3398l251.91-167.94c5.8008-3.8984 9.2812-10.434 9.2812-17.422.0-6.9922-3.4805-13.523-9.2812-17.426z"/></svg>