<svg fill="#000" width="800" height="800" viewBox="144 144 512 512" xmlns="http://www.w3.org/2000/svg"><path d="m577.8 213.59c-3.1914-1.8438-6.8125-2.8125-10.496-2.8125-3.6836.0-7.3047.96875-10.496 2.8125l-219.79 147.15V253.05c0-5.5664-2.2109-10.906-6.1484-14.844s-9.2773-6.1484-14.844-6.1484h-83.969c-5.5664.0-10.906 2.2109-14.844 6.1484s-6.1484 9.2773-6.1484 14.844v293.89c0 5.5703 2.2109 10.91 6.1484 14.844 3.9375 3.9375 9.2773 6.1484 14.844 6.1484h83.969c5.5664.0 10.906-2.2109 14.844-6.1484 3.9375-3.9336 6.1484-9.2734 6.1484-14.844V439.25l219.37 146.95c4.3086 2.8438 9.5156 3.9961 14.625 3.2422 5.1055-.75391 9.7578-3.3633 13.062-7.332s5.0312-9.0156 4.8477-14.176v-335.87c-.007812-3.7969-1.0508-7.5234-3.0078-10.773-1.9609-3.2539-4.7656-5.9141-8.1172-7.6992z"/></svg>