<svg fill="#000" width="800" height="800" viewBox="144 144 512 512" xmlns="http://www.w3.org/2000/svg"><path d="m567.93 232.06h-83.969c-5.5664.0-10.906 2.2109-14.84 6.1484-3.9375 3.9375-6.1484 9.2773-6.1484 14.844v107.69l-219.37-146.95v.003906c-3.1914-1.8438-6.8125-2.8125-10.496-2.8125-3.6875.0-7.3047.96875-10.496 2.8125-3.4023 1.7109-6.2695 4.3125-8.3047 7.5312-2.0352 3.2148-3.1562 6.9258-3.2422 10.73v335.87c.007813 3.8008 1.0508 7.5234 3.0078 10.777 1.9609 3.25 4.7656 5.9141 8.1172 7.6953 3.2812 1.6875 6.9531 2.4766 10.637 2.293 3.6875-.18359 7.2578-1.3359 10.355-3.3398l219.37-146.95v108.53c0 5.5703 2.2109 10.91 6.1484 14.844 3.9375 3.9375 9.2773 6.1484 14.844 6.1484h83.969c5.5664.0 10.906-2.2109 14.844-6.1484 3.9375-3.9336 6.1484-9.2734 6.1484-14.844v-293.89c0-5.4961-2.1523-10.773-6-14.699-3.8477-3.9219-9.0781-6.1836-14.574-6.293z"/></svg>