<svg fill="#000" width="800" height="800" viewBox="144 144 512 512" xmlns="http://www.w3.org/2000/svg"><g><path d="m253.05 211.07h83.969c11.594.0 20.992 11.594 20.992 20.992v335.87c0 11.594-9.3984 20.992-20.992 20.992H253.05c-11.594.0-20.992-11.594-20.992-20.992v-335.87c0-11.594 9.3984-20.992 20.992-20.992z"/><path d="m462.98 211.07h83.969c11.594.0 20.992 11.594 20.992 20.992v335.87c0 11.594-9.3984 20.992-20.992 20.992H462.98c-11.594.0-20.992-11.594-20.992-20.992v-335.87c0-11.594 9.3984-20.992 20.992-20.992z"/></g></svg>